<?xml version="1.0" encoding="utf-8"?>
<!-- Generator: Adobe Illustrator 18.1.1, SVG Export Plug-In . SVG Version: 6.00 Build 0)  -->
<svg version="1.1" id="Layer_1" xmlns="http://www.w3.org/2000/svg" xmlns:xlink="http://www.w3.org/1999/xlink" x="0px" y="0px"
	 viewBox="0 0 375.6 165.9" enable-background="new 0 0 375.6 165.9" xml:space="preserve">
<g>
	<defs>
		<rect id="SVGID_1_" width="375.6" height="165.9"/>
	</defs>
	<clipPath id="SVGID_2_">
		<use xlink:href="#SVGID_1_"  overflow="visible"/>
	</clipPath>
	<path clip-path="url(#SVGID_2_)" fill="#39B76F" d="M150.7,112.7h8.7V97.2c-3-0.8-6-1.9-8.7-3.3V112.7z"/>
</g>
<rect x="119.9" y="93.2" fill="#39B76F" width="8.8" height="19.4"/>
<g>
	<defs>
		<rect id="SVGID_3_" width="375.6" height="165.9"/>
	</defs>
	<clipPath id="SVGID_4_">
		<use xlink:href="#SVGID_3_"  overflow="visible"/>
	</clipPath>
	<path clip-path="url(#SVGID_4_)" fill="#39B76F" d="M181.1,112.7h8.8V96.3c-2.8,1-5.7,1.7-8.8,2.1V112.7z"/>
</g>
<rect y="129.3" fill="#39B76F" width="209.6" height="4.4"/>
<rect x="100.4" y="71.4" fill="#39B76F" width="8.8" height="14.7"/>
<g>
	<defs>
		<rect id="SVGID_5_" width="375.6" height="165.9"/>
	</defs>
	<clipPath id="SVGID_6_">
		<use xlink:href="#SVGID_5_"  overflow="visible"/>
	</clipPath>
	<path clip-path="url(#SVGID_6_)" fill="#39B76F" d="M165.9,98.5v14.2h8.7V99c-0.5,0-0.9,0-1.4,0C170.8,99.1,168.3,98.9,165.9,98.5"
		/>
</g>
<rect x="35" y="93.2" fill="#39B76F" width="8.8" height="19.4"/>
<rect x="50.2" y="93.2" fill="#39B76F" width="8.8" height="19.4"/>
<g>
	<defs>
		<rect id="SVGID_7_" width="375.6" height="165.9"/>
	</defs>
	<clipPath id="SVGID_8_">
		<use xlink:href="#SVGID_7_"  overflow="visible"/>
	</clipPath>
	<path clip-path="url(#SVGID_8_)" fill="#39B76F" d="M65.7,119.5H13.1v-33h52.6V119.5z M203.1,89.6c-2.1,1.5-4.3,2.8-6.5,3.9v26H144
		V90c-2.3-1.6-4.5-3.4-6.5-5.3v34.9H72.2V69.4h54.4c-2-3.6-4.9-15.3-5.1-18.9c-4.9-1.1-9.9-2.1-14.9-3.3l-3.6,0.1
		c-14.1,2.4-29.8,6.4-44,9.7v6.8l6.7-1.5V80H9.8c-1.8,0-3.3,1.5-3.3,3.3v36.3H0v6.5h209.6v-6.5h-6.5V89.6z"/>
</g>
<rect x="100.4" y="93.2" fill="#39B76F" width="8.8" height="19.4"/>
<rect x="81" y="93.2" fill="#39B76F" width="8.7" height="19.4"/>
<g>
	<defs>
		<rect id="SVGID_9_" width="375.6" height="165.9"/>
	</defs>
	<clipPath id="SVGID_10_">
		<use xlink:href="#SVGID_9_"  overflow="visible"/>
	</clipPath>
	<path clip-path="url(#SVGID_10_)" fill="#39B76F" d="M119.9,86.1h8.8V73.6c-0.4-0.7-0.9-1.5-1.3-2.2h-7.5V86.1z"/>
</g>
<rect x="81" y="71.4" fill="#39B76F" width="8.7" height="14.7"/>
<g>
	<defs>
		<rect id="SVGID_11_" width="375.6" height="165.9"/>
	</defs>
	<clipPath id="SVGID_12_">
		<use xlink:href="#SVGID_11_"  overflow="visible"/>
	</clipPath>
	<path clip-path="url(#SVGID_12_)" fill="#FFFFFF" d="M128.7,71.4h-1.3c0.4,0.8,0.8,1.5,1.3,2.2V71.4z"/>
	<path clip-path="url(#SVGID_12_)" fill="#FFFFFF" d="M150.7,93.2v0.6c2.8,1.3,5.7,2.4,8.7,3.3v-3.9H150.7z"/>
	<path clip-path="url(#SVGID_12_)" fill="#39B76F" d="M173.5,0c-26.1,0-47.3,21.1-47.3,47.2c0,0,0,0.1,0,0.1c0,1.4,0.1,2.8,0.2,4.2
		c0.3,3.2,0.9,6.3,1.7,9.2c1.9,6.4,5.1,12.2,9.3,17.2c2.8,3.3,6,6.2,9.6,8.6c5.6,3.8,12,6.4,18.9,7.5c2.5,0.4,5,0.6,7.7,0.6
		c0.4,0,0.7,0,1.1,0c2.2,0,4.3-0.2,6.5-0.6v-0.8h4c4-1,7.9-2.6,11.4-4.5c2.3-1.3,4.5-2.8,6.5-4.4c2.4-1.9,4.6-4,6.5-6.4
		c7-8.3,11.2-18.9,11.2-30.6C220.9,21.2,199.7,0,173.5,0"/>
	<path clip-path="url(#SVGID_12_)" fill="#39B76F" d="M181.1,94.1c1.4-0.2,2.7-0.5,4-0.8h-4V94.1z"/>
	<path clip-path="url(#SVGID_12_)" fill="#FFFFFF" d="M157.8,47.3l12.1-10.8c1.9-1.7,6.7-6,6.7-8.7c0-1.4-1.1-2.4-2.5-2.4
		c-2.3,0-2.6,2-2.7,3.8h-10.8c0.8-8.9,4.8-12.9,13.9-12.9c6.3,0,13,3.7,13,10.7c0,6.1-5.3,9.9-10.7,11.6v0.3l5.2-0.7L188,38v9.4
		H157.8z"/>
	<path clip-path="url(#SVGID_12_)" fill="#FFFFFF" d="M147.1,63.6c0,1.6,1.1,2.9,3,2.9c1.9,0,3-1.3,3-2.9c0-1.6-1.1-2.9-3-2.9
		C148.2,60.7,147.1,62,147.1,63.6 M152.9,68.6L152.9,68.6c-0.9,1.3-2.4,1.9-4,1.9c-3.8,0-6.5-3.2-6.5-6.9c0-3.7,2.6-6.9,6.5-6.9
		c1.5,0,3.1,0.6,4,1.7v-9.3h4.6V70h-4.6V68.6z"/>
	<path clip-path="url(#SVGID_12_)" fill="#FFFFFF" d="M164.1,63.6c0,1.6,1.1,2.9,3,2.9c1.9,0,3-1.3,3-2.9c0-1.6-1.1-2.9-3-2.9
		C165.2,60.7,164.1,62,164.1,63.6 M174.5,70h-4.6v-1.4h-0.1c-0.8,1.3-2.4,1.9-3.9,1.9c-3.8,0-6.5-3.2-6.5-6.9c0-3.7,2.6-6.9,6.5-6.9
		c1.5,0,3.1,0.6,4,1.7v-1.3h4.6V70z"/>
</g>
<polygon fill="#FFFFFF" points="175.6,57.1 180.9,57.1 184.4,63.7 187.8,57.1 193,57.1 182.6,76.5 177.5,76.5 181.9,68.3 "/>
<g>
	<defs>
		<rect id="SVGID_13_" width="375.6" height="165.9"/>
	</defs>
	<clipPath id="SVGID_14_">
		<use xlink:href="#SVGID_13_"  overflow="visible"/>
	</clipPath>
	<path clip-path="url(#SVGID_14_)" fill="#FFFFFF" d="M202.6,60.4c-0.7-0.4-1.7-0.6-2.5-0.6c-0.5,0-1.4,0.2-1.4,0.9
		c0,0.9,1.4,1,2.1,1.1c2.1,0.4,3.8,1.4,3.8,3.8c0,3.4-3.1,4.8-6.1,4.8c-1.8,0-3.7-0.5-5.2-1.5l1.7-3.2c0.9,0.7,2.5,1.3,3.6,1.3
		c0.6,0,1.4-0.3,1.4-1c0-1-1.4-1.1-2.9-1.4c-1.4-0.4-2.9-1.1-2.9-3.4c0-3.2,2.9-4.6,5.7-4.6c1.5,0,2.9,0.2,4.3,0.8L202.6,60.4z"/>
	<path clip-path="url(#SVGID_14_)" fill="#FFFFFF" d="M111.7,61.5c-0.6,0.8-1.4,1.7-2.4,1.8c-0.6,0.1-1.4,0.2-1.9-0.1
		c-1.1-0.4-2.3-1.1-2.8-2.3c-0.6-1.4-0.2-3,0.7-4.1c0.4-0.5,0.9-0.7,1.5-0.8c0,0.1,0.1,0.2,0.2,0.2c0.3,0,0.6-0.2,1-0.1
		c1.4,0.1,2.8,0.6,3.6,1.9C112.2,59,112.4,60.5,111.7,61.5 M112.8,59.4c-0.1-0.7-0.4-1.2-0.6-1.8c-0.3-0.4-0.7-0.9-1.1-1.1
		c-0.3-0.2-0.6-0.5-1-0.5c-0.8-0.4-1.9-0.4-2.8-0.3c-0.1-0.2-0.3-0.2-0.5-0.2c-0.3,0.1-0.6,0.1-0.8,0.2c-0.4,0.1-0.8,0.4-1,0.7
		c-0.5,0.2-0.6,0.7-0.8,1.3c0,0.1-0.1,0.4-0.2,0.5c-0.4,1.7-0.1,3.5,1.3,4.6c0.8,0.6,1.7,1.1,2.7,1.2c1.5,0.1,2.9-0.1,3.8-1.2
		C112.6,61.8,112.9,60.6,112.8,59.4"/>
	<path clip-path="url(#SVGID_14_)" fill="#FFFFFF" d="M106.4,56.9c0.1,0.2,0,0.5-0.1,0.7c-0.1,0.2-0.4,0.2-0.6,0.2
		c-0.1-0.1-0.1-0.3-0.1-0.5c0-0.2,0.1-0.4,0.4-0.5C106.2,56.8,106.3,56.8,106.4,56.9"/>
</g>
<polygon fill="#FFFFFF" points="87.2,57.6 84.7,59.6 87.7,61.8 87.1,62.5 84,60.2 83.6,60.4 83.6,62.3 82.7,62.4 82.7,57 83.6,57 
	83.6,59.2 86.6,56.9 "/>
<g>
	<defs>
		<rect id="SVGID_15_" width="375.6" height="165.9"/>
	</defs>
	<clipPath id="SVGID_16_">
		<use xlink:href="#SVGID_15_"  overflow="visible"/>
	</clipPath>
	<path clip-path="url(#SVGID_16_)" fill="#FFFFFF" d="M90.3,60.7c0.1,0.4,0.5,0.8,0.9,0.9c0.6,0.1,1.4,0,1.7-0.6l0.1-0.2l0-0.3
		l0-3.5l1,0l0,3.6c-0.1,0.6-0.5,1.3-1.1,1.6c-0.9,0.4-2.2,0.4-3-0.3c-0.4-0.4-0.6-0.8-0.6-1.3V57h0.9L90.3,60.7z"/>
	<path clip-path="url(#SVGID_16_)" fill="#FFFFFF" d="M99.1,59.1l1.8-2.1h0.8l0,5.4l-0.9,0l0-3.9c0,0-1.7,1.9-1.7,1.9
		c-0.5-0.6-1.7-1.9-1.7-1.9v3.9l-0.9,0V57h0.8L99.1,59.1z"/>
	<path clip-path="url(#SVGID_16_)" fill="#FFFFFF" d="M118.9,60.9v-3.8h0.9v5.4l-0.8,0l-3.3-3.8v3.8h-0.9l0-5.4h0.8
		C115.5,57.1,118.8,60.9,118.9,60.9"/>
	<path clip-path="url(#SVGID_16_)" fill="#FFFFFF" d="M110.9,57.8c0.1,0.1,0.2,0.3,0.1,0.5c-0.1,0.2-0.3,0.3-0.4,0.4
		c-0.1,0-0.2,0-0.3-0.1c-0.1-0.2,0-0.5,0.1-0.7C110.5,57.7,110.8,57.7,110.9,57.8"/>
	<path clip-path="url(#SVGID_16_)" fill="#FFFFFF" d="M108.9,62.3c0.3,0.1,0.6,0,0.9,0.3c0,0.1,0,0.3-0.1,0.4
		c-0.3,0.1-0.5-0.1-0.8-0.1c-0.5-0.1-1.1,0.1-1.4-0.3c0-0.1,0-0.3,0.1-0.4C108,62.1,108.4,62.3,108.9,62.3"/>
	<path clip-path="url(#SVGID_16_)" fill="#FFFFFF" d="M120.9,57.4L120.9,57.4c0.1,0,0.2,0,0.2-0.1c0-0.1,0-0.1-0.1-0.1
		c0,0-0.1,0-0.1,0V57.4z M120.9,57.7h-0.1v-0.6c0.1,0,0.1,0,0.2,0c0.1,0,0.2,0,0.2,0c0,0,0.1,0.1,0.1,0.1c0,0.1-0.1,0.1-0.1,0.1v0
		c0.1,0,0.1,0.1,0.1,0.1c0,0.1,0,0.1,0,0.2h-0.1c0,0,0-0.1,0-0.2c0-0.1,0-0.1-0.1-0.1h-0.1V57.7z M121,57c-0.2,0-0.4,0.2-0.4,0.4
		c0,0.2,0.2,0.4,0.4,0.4c0.2,0,0.4-0.2,0.4-0.4C121.4,57.2,121.2,57,121,57L121,57z M121,56.9c0.3,0,0.5,0.2,0.5,0.6
		c0,0.3-0.2,0.6-0.6,0.6c-0.3,0-0.6-0.2-0.6-0.6C120.5,57.1,120.7,56.9,121,56.9L121,56.9z"/>
</g>
<path fill="none" stroke="#39B76F" stroke-width="2" stroke-miterlimit="10" d="M248.6,145.5l12.2-5.2 M246.8,141.1l22.8-9.8
	 M245,136.9l22.8-9.8 M243.2,132.5l22.8-9.8 M241.4,128l22.8-9.8 M239.4,123.2l22.8-9.8 M262.9,148.3l12.2-5.2"/>
<g>
	<defs>
		<rect id="SVGID_17_" width="375.6" height="165.9"/>
	</defs>
	<clipPath id="SVGID_18_">
		<use xlink:href="#SVGID_17_"  overflow="visible"/>
	</clipPath>
	<path clip-path="url(#SVGID_18_)" fill="#FFFFFF" d="M273.9,138.2c1.6,4-0.2,8.7-4.1,10.4l-21.9,9.5c-3.9,1.7-8.4-0.2-10.1-4.2
		l-14.3-35c-1.6-4,0.2-8.7,4.1-10.4l21.9-9.5c3.9-1.7,8.4,0.2,10.1,4.2l13.1,32.1L273.9,138.2z"/>
	<path clip-path="url(#SVGID_18_)" fill="none" stroke="#39B76F" stroke-width="4" stroke-miterlimit="10" d="M273.9,138.2
		c1.6,4-0.2,8.7-4.1,10.4l-21.9,9.5c-3.9,1.7-8.4-0.2-10.1-4.2l-14.3-35c-1.6-4,0.2-8.7,4.1-10.4l21.9-9.5c3.9-1.7,8.4,0.2,10.1,4.2
		l13.1,32.1L273.9,138.2z"/>
</g>
<path fill="none" stroke="#39B76F" stroke-width="2" stroke-miterlimit="10" d="M253.7,135.7l13-2.6 M252.8,131l24.3-4.8
	 M251.9,126.6l24.3-4.8 M251,121.9l24.3-4.8 M250.1,117l24.3-4.8 M249.1,111.9l24.3-4.8 M267.2,141.4l13-2.6 M237.4,138.5l12.2-5.2
	 M235.6,134l22.8-9.8 M233.9,129.9l22.8-9.8 M232.1,125.5l22.8-9.8 M230.2,120.9l22.8-9.8 M228.2,116.1l22.8-9.8"/>
<g>
	<defs>
		<rect id="SVGID_19_" width="375.6" height="165.9"/>
	</defs>
	<clipPath id="SVGID_20_">
		<use xlink:href="#SVGID_19_"  overflow="visible"/>
	</clipPath>
	<path clip-path="url(#SVGID_20_)" fill="#FFFFFF" d="M279.9,133.8c0.8,4.3-1.9,8.5-6.1,9.3l-23.3,4.7c-4.2,0.8-8.2-2-9-6.3l-7-37.3
		c-0.8-4.3,1.9-8.5,6.1-9.3l23.3-4.7c4.2-0.8,8.2,2,9,6.3l6.5,34.1L279.9,133.8z"/>
	<path clip-path="url(#SVGID_20_)" fill="none" stroke="#39B76F" stroke-width="4" stroke-miterlimit="10" d="M279.9,133.8
		c0.8,4.3-1.9,8.5-6.1,9.3l-23.3,4.7c-4.2,0.8-8.2-2-9-6.3l-7-37.3c-0.8-4.3,1.9-8.5,6.1-9.3l23.3-4.7c4.2-0.8,8.2,2,9,6.3l6.5,34.1
		L279.9,133.8z"/>
</g>
<path fill="none" stroke="#39B76F" stroke-width="2" stroke-miterlimit="10" d="M264.6,141.5l13.2-0.6 M264.4,136.6l24.8-1.1
	 M264.2,132.1l24.8-1.1 M264.1,127.3l24.8-1.1 M263.8,122.4l24.8-1.1 M263.6,117.2l24.8-1.1 M277.2,149.2l13.2-0.6 M244.2,126.6
	l13-2.6 M243.3,121.8l24.3-4.8 M242.4,117.4l24.3-4.8 M241.5,112.7l24.3-4.8 M240.6,107.8l24.3-4.8 M239.6,102.7l24.3-4.8"/>
<g>
	<defs>
		<rect id="SVGID_21_" width="375.6" height="165.9"/>
	</defs>
	<clipPath id="SVGID_22_">
		<use xlink:href="#SVGID_21_"  overflow="visible"/>
	</clipPath>
	<path clip-path="url(#SVGID_22_)" fill="#FFFFFF" d="M290.8,143.6c0.2,4.4-3.1,8.1-7.4,8.2l-23.7,1c-4.2,0.2-7.8-3.2-8-7.6
		l-1.5-37.9c-0.2-4.4,3.1-8.1,7.4-8.2l23.6-1c4.2-0.2,7.8,3.2,8,7.6l1.4,34.7L290.8,143.6z"/>
	<path clip-path="url(#SVGID_22_)" fill="none" stroke="#39B76F" stroke-width="4" stroke-miterlimit="10" d="M290.8,143.6
		c0.2,4.4-3.1,8.1-7.4,8.2l-23.7,1c-4.2,0.2-7.8-3.2-8-7.6l-1.5-37.9c-0.2-4.4,3.1-8.1,7.4-8.2l23.6-1c4.2-0.2,7.8,3.2,8,7.6
		l1.4,34.7L290.8,143.6z"/>
	<path clip-path="url(#SVGID_22_)" fill="none" stroke="#39B76F" stroke-width="2" stroke-miterlimit="10" d="M273.4,148.5l12.9,3
		 M274.4,143.8l24.1,5.6 M275.4,139.4l24.1,5.6 M276.5,134.7l24.1,5.6 M277.6,129.9l24.1,5.6 M278.7,124.8l24.1,5.6 M283.5,159.3
		l12.9,3 M256.6,130.9l13.2-0.6 M256.4,126.1l24.7-1.1 M256.2,121.6l24.7-1.1 M256,116.8l24.7-1.1 M255.8,111.9l24.7-1.1
		 M255.6,106.6l24.7-1.1"/>
	<path clip-path="url(#SVGID_22_)" fill="#FFFFFF" d="M298.2,157.7c-0.9,4.3-5.1,6.9-9.2,6l-23.1-5.4c-4.1-1-6.7-5.2-5.8-9.5l8.2-37
		c0.9-4.3,5.1-6.9,9.2-6l23.1,5.4c4.1,1,6.7,5.2,5.8,9.5l-7.5,33.9L298.2,157.7z"/>
	<path clip-path="url(#SVGID_22_)" fill="none" stroke="#39B76F" stroke-width="4" stroke-miterlimit="10" d="M298.2,157.7
		c-0.9,4.3-5.1,6.9-9.2,6l-23.1-5.4c-4.1-1-6.7-5.2-5.8-9.5l8.2-37c0.9-4.3,5.1-6.9,9.2-6l23.1,5.4c4.1,1,6.7,5.2,5.8,9.5l-7.5,33.9
		L298.2,157.7z"/>
	<path clip-path="url(#SVGID_22_)" fill="none" stroke="#39B76F" stroke-width="2" stroke-miterlimit="10" d="M285.7,142l11,7.4
		 M288.3,138l20.7,13.8 M290.7,134.2l20.7,13.8 M293.2,130.2L314,144 M295.9,126l20.7,13.8 M298.7,121.6l20.7,13.8 M291.5,155.7
		l11,7.4 M268.4,136.2l12.9,3 M269.5,131.5l24.1,5.6 M270.4,127.1l24.1,5.6 M271.5,122.4l24.1,5.6 M272.6,117.6l24.1,5.6
		 M273.7,112.5l24.1,5.6"/>
	<path clip-path="url(#SVGID_22_)" fill="#FFFFFF" d="M306,159.4c-2.3,3.7-7.1,4.7-10.7,2.3l-19.9-13.4c-3.6-2.4-4.6-7.3-2.2-11
		l20.2-31.8c2.3-3.7,7.1-4.7,10.7-2.3l19.9,13.4c3.6,2.4,4.6,7.3,2.2,11l-18.5,29.1L306,159.4z"/>
	<path clip-path="url(#SVGID_22_)" fill="none" stroke="#39B76F" stroke-width="4" stroke-miterlimit="10" d="M306,159.4
		c-2.3,3.7-7.1,4.7-10.7,2.3l-19.9-13.4c-3.6-2.4-4.6-7.3-2.2-11l20.2-31.8c2.3-3.7,7.1-4.7,10.7-2.3l19.9,13.4
		c3.6,2.4,4.6,7.3,2.2,11l-18.5,29.1L306,159.4z"/>
</g>
<path fill="none" stroke="#39B76F" stroke-width="2" stroke-miterlimit="10" d="M285.3,128.5l11,7.4 M287.8,124.5l20.6,13.8
	 M290.2,120.7l20.6,13.8 M292.8,116.7l20.6,13.8 M295.4,112.6l20.6,13.8 M298.2,108.2l20.6,13.8"/>
<g>
	<defs>
		<rect id="SVGID_23_" width="375.6" height="165.9"/>
	</defs>
	<clipPath id="SVGID_24_">
		<use xlink:href="#SVGID_23_"  overflow="visible"/>
	</clipPath>
	<path clip-path="url(#SVGID_24_)" fill="#FFFFFF" d="M375.6,102.6c0,19.7-15.6,35.7-34.8,35.7s-34.8-16-34.8-35.7
		s15.6-35.7,34.8-35.7S375.6,82.9,375.6,102.6"/>
	<path clip-path="url(#SVGID_24_)" fill="#39B76F" d="M372.7,102.6c0,18.1-14.3,32.7-31.9,32.7c-17.6,0-31.9-14.6-31.9-32.7
		c0-18.1,14.3-32.7,31.9-32.7C358.4,69.9,372.7,84.6,372.7,102.6"/>
	<path clip-path="url(#SVGID_24_)" fill="#FFFFFF" d="M355,92.8v6.6h-9.8c-0.2,0.9-0.3,1.9-0.7,2.7h0.2c0.8-1,2.7-1.2,3.9-1.2
		c4.2,0,7.8,2.9,7.8,7.3c0,5.8-6.1,8.5-11,8.5c-2.4,0-7-0.8-9.1-1.9l0.9-6.3c1.7,0.9,4.9,1.9,6.8,1.9c1.4,0,4-0.5,4-2.3
		c0-1.9-3.3-2.3-4.6-2.3c-2.1,0-4.2,0.3-6.1,1l2-13.9H355z"/>
</g>
<polygon fill="#FFFFFF" points="320.7,99.5 325.4,99.5 327.3,101.7 329.1,99.5 333.9,99.5 329.6,104.4 334.8,110.2 329.9,110.2 
	327.3,107 324.6,110.2 319.8,110.2 324.9,104.4 "/>
<g>
	<defs>
		<rect id="SVGID_25_" width="375.6" height="165.9"/>
	</defs>
	<clipPath id="SVGID_26_">
		<use xlink:href="#SVGID_25_"  overflow="visible"/>
	</clipPath>
	<path clip-path="url(#SVGID_26_)" fill="#FFFFFF" d="M305.5,145.4l-9.3,7l10,3.2l8.2-1.2l0.5,2.5l7.9-1.5l-0.6-3.2l5.7-1
		c0,0,5.4-4.6-1.3-9.5L305.5,145.4z"/>
	<path clip-path="url(#SVGID_26_)" fill="#39B76F" d="M328.6,146l0.1,0.8c0.3,1.9-0.9,3.6-2.7,4l-3.1,0.6l-0.2-1.4l-0.1-0.4
		l-0.2-1.3l-0.1-0.4l-0.7-4.2l3.1-0.6C326.5,142.9,328.3,144.2,328.6,146"/>
</g>
<polygon fill="#39B76F" points="308.7,154 307.3,146.3 320.1,144.1 321.4,151.9 "/>
<polygon fill="#39B76F" points="321.7,153.1 322,154.9 315.8,155.9 315.5,154.2 "/>
<polygon fill="#39B76F" points="298.6,152 305.7,146.7 307.1,154.4 "/>
</svg>
