<?xml version="1.0" encoding="utf-8"?>
<!-- Generator: Adobe Illustrator 18.1.1, SVG Export Plug-In . SVG Version: 6.00 Build 0)  -->
<svg version="1.0" id="Layer_1" xmlns="http://www.w3.org/2000/svg" xmlns:xlink="http://www.w3.org/1999/xlink" x="0px" y="0px"
	 viewBox="0 0 192.5 195" enable-background="new 0 0 192.5 195" xml:space="preserve">
<g>
	<defs>
		<rect id="SVGID_1_" x="0" y="2.5" width="192.5" height="186"/>
	</defs>
	<clipPath id="SVGID_2_">
		<use xlink:href="#SVGID_1_"  overflow="visible"/>
	</clipPath>
	<path clip-path="url(#SVGID_2_)" fill="#FFFFFF" d="M88.6,16.5c-0.9,0-1.7-0.1-2.6-0.1c-46,0-83.2,37.3-83.2,83.2
		S40,182.9,86,182.9c0.9,0,1.7,0,2.6-0.1V16.5z"/>
	<path clip-path="url(#SVGID_2_)" fill="#F1F1F2" d="M169.7,78.2c-4.5,1.7-9.4,2.6-14.5,2.6c-22.7,0-41-18.4-41-41
		c0-7.2,1.9-14.1,5.2-20c-18-7.1-33.5-6.2-33.5-6.2v173.8c89-4.2,88-86.9,88-86.9C173,92.3,171.5,84.9,169.7,78.2"/>
	<path clip-path="url(#SVGID_2_)" fill="#3AB66E" d="M51.7,157.1l-1.8,3.1c-0.7,1.2-0.3,2.6,0.9,3.3c1.2,0.7,2.7,0.3,3.3-0.9
		l1.8-3.1c0.7-1.2,0.3-2.6-0.9-3.3C53.9,155.6,52.4,156,51.7,157.1"/>
	<path clip-path="url(#SVGID_2_)" fill="#3AB66E" d="M88,155.9c-2.1,0-3.8,1.7-3.8,3.7V171c0,2.1,1.7,3.7,3.8,3.7
		c2.1,0,3.8-1.7,3.8-3.7v-11.3C91.8,157.6,90.1,155.9,88,155.9"/>
	<path clip-path="url(#SVGID_2_)" fill="#3AB66E" d="M163.8,99.6c0-2.1-1.7-3.7-3.8-3.7h-11.5c-1.1,0-2.1,0.5-2.8,1.3
		c-0.7-1-1.9-1.7-3.2-1.7c-18.4-0.4-30.5-0.7-51.4-1.2c-0.5-0.7-1.2-1.4-2-1.8c0.6-19.7,1.1-34,1.6-50.3c0.6-0.7,1-1.6,1-2.6V28.3
		c0-2.1-1.7-3.7-3.8-3.7c-2.1,0-3.8,1.7-3.8,3.7v11.3c0,0.5,0.1,1,0.3,1.4c-0.5,16.8-1,31.2-1.6,51.2c-1.5,0.7-2.7,2-3.3,3.7
		c-0.4,1.1-0.5,2.3-0.3,3.4l-58.1,29.2c-0.9,0.5-1.3,1.6-0.8,2.5c0.5,0.9,1.6,1.3,2.5,0.8l58.2-29.2c0.7,0.7,1.6,1.3,2.6,1.7
		c2.7,1,5.7,0,7.4-2.1c21,0.5,33,0.7,51.3,1.2c1.3,0,2.4-0.6,3.2-1.5c0.7,0.9,1.8,1.5,3,1.5H160C162.1,103.4,163.8,101.7,163.8,99.6
		"/>
	<path clip-path="url(#SVGID_2_)" fill="#3AB66E" d="M148.5,131.4c-1.2-0.7-2.7-0.3-3.3,0.9c-0.7,1.2-0.3,2.6,0.9,3.3l3.1,1.8
		c1.2,0.7,2.7,0.3,3.3-0.9c0.7-1.1,0.3-2.6-0.9-3.3L148.5,131.4z"/>
	<path clip-path="url(#SVGID_2_)" fill="#3AB66E" d="M121,156.2c-1.2,0.7-1.6,2.1-0.9,3.3l1.8,3.1c0.7,1.2,2.2,1.5,3.3,0.9
		c1.2-0.7,1.6-2.1,0.9-3.3l-1.8-3.1C123.7,156,122.2,155.6,121,156.2"/>
	<path clip-path="url(#SVGID_2_)" fill="#3AB66E" d="M55,43c1.2-0.7,1.6-2.1,0.9-3.3l-1.8-3.1c-0.7-1.2-2.2-1.5-3.3-0.9
		s-1.6,2.1-0.9,3.3l1.8,3.1C52.4,43.3,53.9,43.7,55,43"/>
	<path clip-path="url(#SVGID_2_)" fill="#3AB66E" d="M164.2,79.8c1.7,6.3,2.6,13,2.6,19.8c0,43.1-35.2,78-78.7,78
		c-43.5,0-78.7-34.9-78.7-78s35.2-78,78.7-78c10,0,19.5,1.9,28.2,5.2c1-3,2.3-5.8,3.9-8.4c-10-3.9-20.8-6-32.1-6
		c-48.6,0-88,39-88,87.2s39.4,88.9,88,88.9c48.6,0,88-40.7,88-88.9c0-7.9-1.1-15.6-3.1-22.9C170.2,78.1,167.3,79.1,164.2,79.8"/>
	<path clip-path="url(#SVGID_2_)" fill="#3AB66E" d="M27.6,131.4l-3.1,1.8c-1.2,0.7-1.6,2.1-0.9,3.3c0.7,1.2,2.2,1.5,3.3,0.9
		l3.1-1.8c1.2-0.7,1.6-2.1,0.9-3.3C30.2,131.2,28.7,130.8,27.6,131.4"/>
	<path clip-path="url(#SVGID_2_)" fill="#3AB66E" d="M27.6,67.8c1.2,0.7,2.7,0.3,3.3-0.9c0.7-1.2,0.3-2.6-0.9-3.3l-3.1-1.8
		c-1.2-0.7-2.6-0.3-3.3,0.9c-0.7,1.2-0.3,2.6,0.9,3.3L27.6,67.8z"/>
	<path clip-path="url(#SVGID_2_)" fill="#3AB66E" d="M12.2,99.6c0,2.1,1.7,3.7,3.8,3.7h11.4c2.1,0,3.8-1.7,3.8-3.7
		c0-2.1-1.7-3.7-3.8-3.7H16C13.9,95.9,12.2,97.6,12.2,99.6"/>
	<path clip-path="url(#SVGID_2_)" fill="#3AB66E" d="M167,26.9c-0.3,0-0.8,0-1.3,0.5c-0.8,0.7-1.4,2.1-1.4,4.5c0,0.3,0,1.6,0.4,2.8
		c0.1,0.3,0.7,2.2,2.4,2.2c0.6,0,1-0.3,1.2-0.5c1.2-1,1.5-3,1.5-4.4c0-0.2,0.1-3.1-1.3-4.4C167.9,26.9,167.4,26.9,167,26.9"/>
	<path clip-path="url(#SVGID_2_)" fill="#3AB66E" d="M173.9,41.4c-2,1.7-4.1,2.4-6.7,2.4c-0.9,0-1.7-0.1-2-0.2c-1-0.1-2.8-0.5-4.8-2
		c-1.7-1.3-4.2-4.1-4.2-9.5c0-0.7,0.1-2.4,0.6-4.3c1.4-5,4.9-6.8,6.7-7.5c0.6-0.2,1.7-0.5,3.2-0.5c7.2-0.2,11.2,5.6,11.2,12.3
		C177.9,33.9,177.7,38.2,173.9,41.4 M172.7,60h-3.3v-5.5c0-0.6,0-1.2-0.5-1.7c-0.4-0.3-0.8-0.3-1-0.3c-0.2,0-0.7,0-1.2,0.4
		c-0.7,0.5-0.8,1.4-0.8,2.2v5h-3.2v-10h3.3v1.3c0.5-0.5,1.5-1.6,3.4-1.6c1.6,0,2.5,0.8,2.8,1.3c0.5,0.8,0.6,1.7,0.6,2.6V60z
		 M158.6,48.2c-0.3,0-0.9-0.1-1.4-0.6c-0.4-0.3-0.6-0.9-0.6-1.4c0-1.1,0.9-1.9,1.9-1.9c1.1,0,1.9,0.9,1.9,2
		C160.5,47.4,159.6,48.2,158.6,48.2 M160.2,60h-3.3v-10h3.3V60z M154.5,60h-3.3v-5.5c0-0.4,0.1-1.9-1.6-1.9c-0.3,0-1.1,0-1.6,0.7
		c-0.3,0.5-0.3,1-0.3,1.5V60h-3.3v-5.4c0-0.7,0-1.4-0.7-1.9c-0.1-0.1-0.4-0.2-0.9-0.2c-0.2,0-0.6,0-1,0.3c-1,0.6-0.9,1.7-0.9,2V60
		h-3.3V50h3.3v1.5c0.4-0.7,1.2-1.7,3.1-1.7c0.5,0,1.7,0,2.6,1.1c0.2,0.3,0.4,0.5,0.5,0.8c0.2-0.2,0.3-0.4,0.5-0.5
		c0.5-0.5,1.3-1.3,3-1.3c2.2,0,3.1,1.2,3.4,2.1c0.2,0.5,0.2,0.9,0.2,1.8V60z M133.2,39c-0.8-1.6-0.8-3.1-0.9-3.8l8.5,0
		c0,0.1,0.1,0.8,0.3,1.3c0.4,0.8,1.2,1.2,2.1,1.2c0.5,0,0.8-0.1,1-0.2c0.4-0.2,1.2-0.8,1.2-1.9c0-0.4-0.2-1.4-1.2-1.8
		c-0.7-0.3-1.3-0.3-2-0.2V29c0.2,0,1.4,0.2,2.1-0.6c0.1-0.1,0.3-0.5,0.3-1c0-0.4-0.2-1.5-1.5-1.5c-1,0-1.4,0.7-1.5,1.1
		c-0.1,0.4-0.1,0.6-0.1,0.7l-8.2,0c0.3-2,0.5-3.4,1.9-4.9c2-2.3,5.2-2.9,8.1-2.9c0.7,0,2.6,0,4.5,0.7c2.5,0.9,5.1,2.9,5.1,5.9
		c0,0.7-0.2,2.3-1.5,3.6c-0.4,0.4-0.9,0.7-1.3,1c0.2,0.1,0.8,0.3,1.4,0.6c1.6,1,2.5,2.7,2.5,4.6c0,1.3-0.4,3.7-3,5.6
		c-1.4,1-3.4,2-7.4,2c-0.6,0-2.2,0-3.9-0.4C138.5,43.3,134.9,42.3,133.2,39 M155.2,2.5c-20.6,0-37.2,16.7-37.2,37.2
		c0,20.6,16.7,37.2,37.2,37.2s37.2-16.7,37.2-37.2C192.5,19.2,175.8,2.5,155.2,2.5"/>
</g>
</svg>
