<?xml version="1.0" encoding="utf-8"?>
<!-- Generator: Adobe Illustrator 22.0.1, SVG Export Plug-In . SVG Version: 6.00 Build 0)  -->
<svg version="1.1"
	 id="svg3438" xmlns:cc="http://creativecommons.org/ns#" xmlns:dc="http://purl.org/dc/elements/1.1/" xmlns:rdf="http://www.w3.org/1999/02/22-rdf-syntax-ns#" xmlns:svg="http://www.w3.org/2000/svg"
	 xmlns="http://www.w3.org/2000/svg" xmlns:xlink="http://www.w3.org/1999/xlink" x="0px" y="0px" viewBox="0 0 400 93.4"
	 style="enable-background:new 0 0 400 93.4;" xml:space="preserve">
<path id="path7622" d="M324.7,43.1c-0.7-7.2-4.2-13.3-6.7-19.8c-3-4.7-7.2-9.3-11.8-12.4c-3.6-1.8-6.5-5.2-10.7-5.5
	c-9.1-3.9-20.2-4.8-30.7-3.4c-1.1-2.2-3.5-1.8-5.5-2.1c-2.8,1.2-6.1,1.1-8.8,2.5c-4.3,1-8.4,4.2-11.2,7.8c-4.8,4-5.7,9.1-8.9,14
	c-0.4,1.6-0.8,4.4-1.8,5.7c-4.3,18.1-1.3,37.7,14.1,49.4c8.7,6.5,18.1,11.3,28.6,13.5c15.8,1.5,31-0.8,41.4-13.5
	C322.5,69.8,326.2,56.7,324.7,43.1 M313.4,65.6c-6,9-15.1,18.7-26.1,19.7c-6.3,1.6-14.8,1.8-20.6-1c-11.5-4.8-25.3-11.3-30.3-24.4
	c-6.2-14.7-2.1-32.4,7.8-44.2c4.1-5.4,10.2-7.9,16.6-8.8c0.5,0.9,1,2.1,2.1,2.3c3.8,0.5,6.9-1.8,10.9-1.3
	c15.2,0.8,30.6,6.2,38.7,20.6C318.7,39,320.2,55,313.4,65.6"/>
<path id="path7634" d="M255.3,16.6c1.3,2.5,0.4,5.7-0.8,8c-1.5,1.8-3.9,2.3-6.1,1.7c-1.2-1.3-0.9-3.6-0.6-5.3
	c0.4-2.4,1.5-4.7,4.2-5.7C253.2,15.5,254.3,15.9,255.3,16.6"/>
<path id="path7638" d="M48.4,24L22.3,45.2l32,24.6l-6.3,7.4L13.9,51.7l-3.6,2.7v20.8L0,75.5V17.3h10.1l0.2,23.9l31.6-24.7L48.4,24
	L48.4,24z"/>
<path id="path7642" d="M82.2,57.2c0.6,4.8,5.6,8.4,9.9,9.5c6.9,0.8,15,0.4,18.7-6.3l0.8-2.1l0.3-2.7l0.2-37.7l10.3-0.2l-0.2,39.1
	c-0.8,7-5,14-11.8,17c-9.7,4.4-24.2,4.1-32.2-3.8c-4.2-4-6-8.9-6.3-14.5V17.7h9.9L82.2,57.2"/>
<path id="path7646" d="M177.1,40.1l19.5-22.2h8.8l0,58.4l-10,0.1l-0.1-41.6c-0.3-0.3-18.2,20.1-18.2,20.1
	c-5.9-6.3-18.6-20.3-18.6-20.3v41.6l-9.9-0.1V17.9h9.1L177.1,40.1"/>
<path id="path7650" d="M390.3,59.8V18.9h9.7v57.9l-8.6,0.1l-35.9-41v40.8h-9.7l0.2-58.2h8.5C354.4,18.5,390.1,60,390.3,59.8"/>
<path id="path7654" d="M304.3,26.5c1.4,1.4,1.8,3.5,1.3,5.5c-0.6,2.2-2.7,3.4-4.6,4.4c-1.2,0-2.3-0.2-3.2-1.1c-1-2.7-0.1-5.6,0.8-8
	C299.9,25.4,302.8,24.7,304.3,26.5"/>
<g>
	<g>
		<path d="M247.6,67.9c3.8,4.9,11.5,7.2,17.1,8.9c8.8,2.8,18.2,4.5,27.5,4.1c3.8-0.2,3.9-6.2,0-6c-8.3,0.4-16.6-1-24.6-3.4
			c-5.1-1.5-12.4-3.4-15.8-7.8C249.5,60.7,245.3,64.9,247.6,67.9L247.6,67.9z"/>
	</g>
</g>
</svg>
