<?xml version="1.0" encoding="utf-8"?>
<!-- Generator: Adobe Illustrator 18.1.1, SVG Export Plug-In . SVG Version: 6.00 Build 0)  -->
<svg version="1.1" id="Layer_1" xmlns="http://www.w3.org/2000/svg" xmlns:xlink="http://www.w3.org/1999/xlink" x="0px" y="0px"
	 viewBox="0 0 103.7 153.3" enable-background="new 0 0 103.7 153.3" xml:space="preserve">
<g>
	<defs>
		<rect id="SVGID_1_" width="103.7" height="153.3"/>
	</defs>
	<clipPath id="SVGID_2_">
		<use xlink:href="#SVGID_1_"  overflow="visible"/>
	</clipPath>
	<path clip-path="url(#SVGID_2_)" fill="#EF5A72" d="M51.9,102.6c28,0,50.8-22.7,50.8-50.8c0-28-22.7-50.8-50.8-50.8
		S1.1,23.8,1.1,51.9C1.1,79.9,23.8,102.6,51.9,102.6"/>
	<circle clip-path="url(#SVGID_2_)" fill="none" stroke="#FFFFFF" stroke-width="2.209" cx="51.9" cy="51.9" r="50.8"/>
	<path clip-path="url(#SVGID_2_)" fill="#FFFFFF" d="M51.9,92.3c-22.3,0-40.4-18.1-40.4-40.4s18.1-40.4,40.4-40.4
		s40.4,18.1,40.4,40.4S74.2,92.3,51.9,92.3"/>
	<path clip-path="url(#SVGID_2_)" fill="#AAACAF" d="M62.1,32.6c-3.4,0.3-0.5,0.2-4.2,0.4c-0.4-0.2-0.6-0.6-0.4-0.9
		c0.2-0.3,0.7-0.5,1.1-0.3c2.9-0.5,0.2-0.3,3.5-0.6c0.5,0,0.8,0.3,0.8,0.7C63,32.3,62.6,32.6,62.1,32.6"/>
	<path clip-path="url(#SVGID_2_)" fill="#AAACAF" d="M58.9,35.7c3.3-0.3,0.5-0.1,4.1-0.6c0.4-0.2,0.4-0.7,0.2-1
		c-0.3-0.3-0.7-0.3-1.1-0.1c-2.8,0-0.2,0-3.5,0.2c-0.5,0.1-0.7,0.5-0.7,0.9C58,35.6,58.4,35.8,58.9,35.7"/>
	<path clip-path="url(#SVGID_2_)" fill="#AAACAF" d="M48.8,32.7c-0.3,0.5-0.7,0.9-0.9,1.2c0.2,0.2,0.6,0.5,1.2,1
		c0.8,0.8-0.2,1.1-0.7,0.7c-0.6-0.5-0.9-0.7-1.1-0.9c-0.2,0.3-0.5,0.6-1.2,1.4c-0.3,0.1-0.5,0.1-0.6-0.2c-0.1-0.4,0.8-1.4,1.1-1.8
		c-0.2-0.2-0.6-0.6-1.3-1.2c-0.1-0.3-0.1-0.5,0.2-0.6c0.4-0.1,1.2,0.7,1.6,1c0.2-0.2,0.6-0.7,1-1.3C48.7,31.4,49.4,32.1,48.8,32.7"
		/>
	<path clip-path="url(#SVGID_2_)" fill="#AAACAF" d="M48.4,44.9c-0.3,0.5-0.7,0.9-0.9,1.2c0.2,0.2,0.6,0.5,1.2,1
		c0.8,0.8-0.2,1.1-0.7,0.7c-0.6-0.5-0.9-0.7-1.1-0.9c-0.2,0.3-0.5,0.6-1.2,1.4c-0.3,0.1-0.5,0.1-0.6-0.2c-0.1-0.4,0.8-1.4,1.1-1.8
		C46,46,45.6,45.6,44.9,45c-0.1-0.3-0.1-0.5,0.2-0.6c0.4-0.1,1.2,0.7,1.6,1c0.2-0.2,0.6-0.7,1-1.3C48.3,43.5,49,44.2,48.4,44.9"/>
	<path clip-path="url(#SVGID_2_)" fill="#AAACAF" d="M48.4,56c-0.3,0.5-0.7,0.9-0.9,1.2c0.2,0.2,0.6,0.5,1.2,1
		c0.8,0.8-0.2,1.1-0.7,0.7c-0.6-0.5-0.9-0.7-1.1-0.9c-0.2,0.3-0.5,0.6-1.2,1.4c-0.3,0.1-0.5,0.1-0.6-0.2c-0.1-0.4,0.8-1.4,1.1-1.8
		c-0.2-0.2-0.6-0.6-1.3-1.2c-0.1-0.3-0.1-0.5,0.2-0.6c0.4-0.1,1.2,0.7,1.6,1c0.2-0.2,0.6-0.7,1-1.3C48.3,54.7,49,55.3,48.4,56"/>
	<path clip-path="url(#SVGID_2_)" fill="#AAACAF" d="M48.5,67.9c-0.3,0.5-0.7,0.9-0.9,1.2c0.2,0.2,0.6,0.5,1.2,1
		c0.8,0.8-0.2,1.1-0.7,0.7c-0.6-0.5-0.9-0.7-1.1-0.9c-0.2,0.3-0.5,0.6-1.2,1.4c-0.3,0.1-0.5,0.1-0.6-0.2c-0.1-0.4,0.8-1.4,1.1-1.8
		C46,69,45.7,68.7,45,68.1c-0.1-0.3-0.1-0.5,0.2-0.6c0.4-0.1,1.2,0.7,1.6,1c0.2-0.2,0.6-0.7,1-1.3C48.4,66.6,49.1,67.3,48.5,67.9"/>
	<path clip-path="url(#SVGID_2_)" fill="#AAACAF" d="M39.2,32.9c0.6-1,1-1.3,1.4-1.8c0.7-0.9,1.1-1.4,1.5-1.3
		c0.5,0.2,0.6,0.9,0.6,2.4c0.1,2.1,0.4,5,0.4,5.8c0,0.4-0.4,0.8-0.8,0.8c-0.4,0-0.8-0.4-0.8-0.8c-0.1-0.8-0.1-3.3-0.2-5l-0.6,0.6
		c-0.2,0.4-0.7,0.6-1.1,0.4C39.2,33.8,39,33.4,39.2,32.9"/>
	<path clip-path="url(#SVGID_2_)" fill="#AAACAF" d="M51.3,31.9c0.6-1,1-1.3,1.4-1.8c0.7-0.9,1.1-1.4,1.5-1.3
		c0.5,0.2,0.6,0.9,0.6,2.4c0.1,2.1,0.4,5,0.4,5.8c0,0.4-0.4,0.8-0.8,0.8c-0.4,0-0.8-0.4-0.8-0.8c-0.1-0.8-0.1-3.3-0.2-5l-0.6,0.6
		c-0.2,0.4-0.7,0.6-1.1,0.4C51.3,32.8,51.1,32.3,51.3,31.9"/>
	<path clip-path="url(#SVGID_2_)" fill="#AAACAF" d="M62.1,55.9c-3.4,0.3-0.5,0.2-4.2,0.4c-0.4-0.2-0.6-0.6-0.4-0.9
		c0.2-0.3,0.7-0.5,1.1-0.3c2.9-0.5,0.2-0.3,3.5-0.6c0.5,0,0.8,0.3,0.8,0.7C63,55.6,62.6,55.9,62.1,55.9"/>
	<path clip-path="url(#SVGID_2_)" fill="#AAACAF" d="M58.9,59c3.3-0.3,0.5-0.1,4.1-0.6c0.4-0.2,0.4-0.7,0.2-1
		c-0.3-0.3-0.7-0.3-1.1-0.1c-2.8,0-0.2,0-3.5,0.2c-0.5,0.1-0.7,0.5-0.7,0.9C58,58.9,58.4,59.1,58.9,59"/>
	<path clip-path="url(#SVGID_2_)" fill="#AAACAF" d="M51.7,53.1c3.9-0.1,4.6-0.5,3.5,0.9c-0.3,0.4-0.6,1-1.1,1.6
		c4.4,0.4,2.5,8.8-3.3,5c-0.3-0.3-0.3-0.8,0-1.1c0.3-0.3,0.8-0.3,1.1,0c1.5,1.1,2.8,0.8,3.2-0.1c0.6-1.1-0.1-3.1-2.3-2.4
		c-1.1,0.3-1.4-0.2-1-0.7c1-1.2,1.3-1.7,1.5-2c-0.6,0-1.2,0-1.7,0c-0.5,0-0.8-0.4-0.8-0.8C50.9,53.1,51.3,53.1,51.7,53.1"/>
	<path clip-path="url(#SVGID_2_)" fill="#AAACAF" d="M39.2,56.3c0.6-1,1-1.3,1.4-1.8c0.7-0.9,1.1-1.4,1.5-1.3
		c0.5,0.2,0.6,0.9,0.6,2.4c0.1,2.1,0.4,5,0.4,5.8c0,0.4-0.4,0.8-0.8,0.8c-0.4,0-0.8-0.4-0.8-0.8c-0.1-0.8-0.1-3.3-0.2-5l-0.6,0.6
		c-0.2,0.4-0.7,0.6-1.1,0.4C39.2,57.2,39,56.7,39.2,56.3"/>
	<path clip-path="url(#SVGID_2_)" fill="#AAACAF" d="M62.1,44.4c-3.4,0.3-0.5,0.2-4.2,0.4c-0.4-0.2-0.6-0.6-0.4-0.9
		c0.2-0.3,0.7-0.5,1.1-0.3c2.9-0.5,0.2-0.3,3.5-0.6c0.5,0,0.8,0.3,0.8,0.7C63,44,62.6,44.4,62.1,44.4"/>
	<path clip-path="url(#SVGID_2_)" fill="#AAACAF" d="M58.9,47.4c3.3-0.3,0.5-0.1,4.1-0.6c0.4-0.2,0.4-0.7,0.2-1
		c-0.3-0.3-0.7-0.3-1.1-0.1c-2.8,0-0.2,0-3.5,0.2c-0.5,0.1-0.7,0.5-0.7,0.9C58,47.3,58.4,47.5,58.9,47.4"/>
	<path clip-path="url(#SVGID_2_)" fill="#AAACAF" d="M39.2,44.7c0.6-1,1-1.3,1.4-1.8c0.7-0.9,1.1-1.4,1.5-1.3
		c0.5,0.2,0.6,0.9,0.6,2.4c0.1,2.1,0.4,5,0.4,5.8c0,0.4-0.4,0.8-0.8,0.8c-0.4,0-0.8-0.4-0.8-0.8c-0.1-0.8-0.1-3.3-0.2-5l-0.6,0.6
		c-0.2,0.4-0.7,0.6-1.1,0.4C39.2,45.6,39,45.1,39.2,44.7"/>
	<path clip-path="url(#SVGID_2_)" fill="#A6A8AB" d="M52.1,49.4C52.1,49.4,52.1,49.4,52.1,49.4L52.1,49.4L52.1,49.4z M55.8,47.8
		c0-0.1-0.1-0.3-0.2-0.4c-0.1-0.1-0.2-0.2-0.4-0.2l-0.1,0c-0.3,0-0.5,0.1-0.8,0.2c-0.3,0.1-0.5,0.2-0.8,0.3l-0.8,0.3
		c-0.1,0-0.1,0.1-0.2,0.1c0-0.1,0.1-0.2,0.2-0.3c0.2-0.4,0.4-0.7,0.6-1.1c0.2-0.4,0.4-0.8,0.6-1.2s0.4-0.8,0.5-1.2
		c0.2-0.4,0.3-0.8,0.3-1.2c0.1-0.4,0.1-0.7,0-1.1c0-0.2-0.2-0.3-0.3-0.4c-0.1-0.1-0.3-0.2-0.5-0.2c-0.2,0-0.4,0-0.7,0.1
		c-0.2,0.1-0.5,0.2-0.8,0.4c-0.3,0.2-0.5,0.4-0.8,0.7c-0.3,0.3-0.5,0.7-0.8,1.2c-0.1,0.1-0.1,0.3,0,0.4c0,0.1,0.1,0.2,0.2,0.3
		c0.1,0.1,0.2,0.1,0.3,0.2l0.1,0c0.1,0,0.3-0.1,0.4-0.2c0.3-0.5,0.6-0.9,0.9-1.1c0.2-0.2,0.5-0.4,0.6-0.5c0.1-0.1,0.2-0.1,0.3-0.1
		c0,0,0,0.1,0,0.2c0,0.2-0.1,0.4-0.2,0.7c-0.1,0.3-0.2,0.6-0.4,0.9c-0.1,0.3-0.3,0.6-0.5,1c-0.2,0.3-0.3,0.6-0.5,1
		c-0.2,0.3-0.3,0.6-0.5,0.9c-0.1,0.3-0.3,0.5-0.4,0.7c-0.1,0.2-0.2,0.4-0.2,0.6c-0.1,0.3,0,0.5,0,0.7c0.1,0.2,0.2,0.3,0.4,0.4
		c0.1,0.1,0.3,0.1,0.4,0.1l0.1,0c0.1,0,0.2,0,0.3-0.1c0.7-0.3,1.3-0.6,1.8-0.8c0.5-0.2,0.9-0.3,1.2-0.4c0.2,0,0.3-0.1,0.4-0.3
		C55.8,48.1,55.9,47.9,55.8,47.8"/>
	<path clip-path="url(#SVGID_2_)" fill="#AAACAF" d="M62.1,67.7c-3.4,0.3-0.5,0.2-4.2,0.4c-0.4-0.2-0.6-0.6-0.4-0.9
		c0.2-0.3,0.7-0.5,1.1-0.3c2.9-0.5,0.2-0.3,3.5-0.6c0.5,0,0.8,0.3,0.8,0.7C63,67.4,62.6,67.7,62.1,67.7"/>
	<path clip-path="url(#SVGID_2_)" fill="#AAACAF" d="M58.9,70.8c3.3-0.3,0.5-0.1,4.1-0.6c0.4-0.2,0.4-0.7,0.2-1
		c-0.3-0.3-0.7-0.3-1.1-0.1c-2.8,0-0.2,0-3.5,0.2c-0.5,0.1-0.7,0.5-0.7,0.9C58,70.7,58.4,70.9,58.9,70.8"/>
	<path clip-path="url(#SVGID_2_)" fill="#AAACAF" d="M39.2,68.1c0.6-1,1-1.3,1.4-1.8c0.7-0.9,1.1-1.4,1.5-1.3
		c0.5,0.2,0.6,0.9,0.6,2.4c0.1,2.1,0.4,5,0.4,5.8c0,0.4-0.4,0.8-0.8,0.8c-0.4,0-0.8-0.4-0.8-0.8c-0.1-0.8-0.1-3.3-0.2-5l-0.6,0.6
		c-0.2,0.4-0.7,0.6-1.1,0.4C39.2,69,39,68.5,39.2,68.1"/>
	<path clip-path="url(#SVGID_2_)" fill="#A6A8AB" d="M55,72.4L55,72.4L55,72.4L55,72.4z M56.7,68.6c0-0.2-0.1-0.3-0.3-0.4
		c-0.1-0.1-0.3-0.1-0.5-0.1l-0.3,0.1l-0.1-3.4c0-0.2-0.1-0.3-0.2-0.4c-0.1-0.1-0.2-0.1-0.4-0.1c-0.1,0-0.3,0-0.4,0.1
		c-0.1,0.1-0.2,0.2-0.2,0.5l0,3.7L52.7,69l0.2-3.4c0-0.2,0-0.4-0.2-0.6c-0.1-0.2-0.3-0.2-0.5-0.2c-0.1,0-0.3,0-0.4,0.1
		c-0.1,0.1-0.2,0.2-0.2,0.5l-0.2,4.3c0,0.1,0,0.3,0.1,0.4c0.1,0.1,0.1,0.2,0.2,0.2c0.1,0,0.2,0.1,0.3,0.1c0.1,0,0.2,0,0.2,0l2.2-0.5
		l0,2.2c0,0.2,0.1,0.4,0.2,0.5c0.1,0.1,0.2,0.1,0.4,0.1l0.1,0c0.1,0,0.3-0.1,0.4-0.2c0.1-0.1,0.2-0.3,0.2-0.5l-0.1-2.5l0.5-0.1
		c0.2-0.1,0.4-0.2,0.5-0.3C56.7,68.9,56.8,68.7,56.7,68.6"/>
	<path clip-path="url(#SVGID_2_)" fill="#AAACAF" d="M73.3,72.3v4.4c0,1.7-1.4,3.1-3.1,3.1h-36c-1.7,0-3.1-1.4-3.1-3.1v-2.6h1.3
		c0.4,0.5,0.7,0.8,1.7,0.8c0.9,0,2.1-1,2.1-2.1c0-1.2-1.2-2.1-2.1-2.1c-0.9,0-1.3,0.3-1.7,0.8H31V64h1.3c0.4,0.5,1,0.8,1.7,0.8
		c1.2,0,2.1-1,2.1-2.1c0-1.2-1-2.1-2.1-2.1c-0.7,0-1.3,0.3-1.7,0.8H31v-7.9h1.3c0.4,0.5,1,0.8,1.7,0.8c1.2,0,2.1-1,2.1-2.1
		c0-1.2-1-2.1-2.1-2.1c-0.7,0-1.3,0.3-1.7,0.8H31v-7.9h1.3c0.4,0.5,1,0.8,1.7,0.8c1.2,0,2.1-1,2.1-2.1c0-1.2-1-2.1-2.1-2.1
		c-0.7,0-1.3,0.3-1.7,0.8H31v-7.4h1.3c0.4,0.5,0.7,0.8,1.7,0.8c0.9,0,2.1-1,2.1-2.1c0-1.2-1.2-2.1-2.1-2.1c-0.9,0-1.3,0.3-1.7,0.8
		H31v-2.6c0-1.7,1.4-3.1,3.1-3.1h36c1.7,0,3.1,1.4,3.1,3.1v33.9l2.7-1.7V27.6c0-3.2-2.6-5.8-5.8-5.8h-36c-3.2,0-5.8,2.6-5.8,5.8v2.6
		h-0.9c-0.7,0-1.3,0.6-1.3,1.3c0,0.7,0.6,1.3,1.3,1.3h0.9v7.4h-0.9c-0.7,0-1.3,0.6-1.3,1.3c0,0.7,0.6,1.3,1.3,1.3h0.9v7.9h-0.9
		c-0.7,0-1.3,0.6-1.3,1.3c0,0.7,0.6,1.3,1.3,1.3h0.9v7.9h-0.9c-0.7,0-1.3,0.6-1.3,1.3s0.6,1.3,1.3,1.3h0.9v7.4h-0.9
		c-0.7,0-1.3,0.6-1.3,1.3c0,0.7,0.6,1.3,1.3,1.3h0.9v2.6c0,3.2,2.6,5.8,5.8,5.8h36c3.2,0,5.8-2.6,5.8-5.8v-6.3L73.3,72.3z"/>
	<path clip-path="url(#SVGID_2_)" fill="#AAACAF" d="M64,71.3l-1.8,3.1c-0.1,0.1,0,0.3,0.1,0.5c0.1,0.1,0.3,0.2,0.4,0.2l3.5-0.7
		C66.1,73.3,65.1,71.8,64,71.3 M65.1,69.4c5.7-4,11.4-8.1,17.1-12.1c0.5,0.2,1,0.4,1.5,0.6c0.5,0.8,1.1,1.5,1.6,2.3
		c0.1,0.6,0.1,1.1,0.2,1.7c-5.7,4-11.4,8.1-17.1,12.1c0.4-0.7,0.5-1.3-0.2-1.7c0.1-1.2-0.6-1.9-1.6-2.3
		C66.4,69.4,66.1,69.1,65.1,69.4"/>
	<line clip-path="url(#SVGID_2_)" fill="none" stroke="#EF5A72" x1="52.6" y1="98" x2="52.6" y2="153.3"/>
</g>
</svg>
