<?xml version="1.0" encoding="utf-8"?>
<!-- Generator: Adobe Illustrator 18.1.1, SVG Export Plug-In . SVG Version: 6.00 Build 0)  -->
<svg version="1.1" id="Layer_1" xmlns="http://www.w3.org/2000/svg" xmlns:xlink="http://www.w3.org/1999/xlink" x="0px" y="0px"
	 viewBox="0 0 103.7 153.3" enable-background="new 0 0 103.7 153.3" xml:space="preserve">
<g>
	<defs>
		<rect id="SVGID_1_" width="103.7" height="153.3"/>
	</defs>
	<clipPath id="SVGID_2_">
		<use xlink:href="#SVGID_1_"  overflow="visible"/>
	</clipPath>
	<path clip-path="url(#SVGID_2_)" fill="#FFBA05" d="M51.9,102.6c28,0,50.8-22.7,50.8-50.8c0-28-22.7-50.8-50.8-50.8
		S1.1,23.8,1.1,51.9C1.1,79.9,23.8,102.6,51.9,102.6"/>
	<circle clip-path="url(#SVGID_2_)" fill="none" stroke="#FFFFFF" stroke-width="2.209" cx="51.9" cy="51.9" r="50.8"/>
	<path clip-path="url(#SVGID_2_)" fill="#FFFFFF" d="M51.9,92.3c-22.4,0-40.5-18.1-40.5-40.5c0-22.4,18.1-40.5,40.5-40.5
		s40.5,18.1,40.5,40.5C92.3,74.2,74.2,92.3,51.9,92.3"/>
	<path clip-path="url(#SVGID_2_)" fill="#AAACAF" d="M66.2,64.5c-0.1,0-0.1,0.1-0.2,0.1c-5.3,3-11.4,3.6-16.8,2.2
		c-11.9-3.2-19-15.4-15.8-27.3c3.2-11.9,15.4-19,27.3-15.8C79.7,28.8,83.3,54.5,66.2,64.5 M41.2,38c-0.1-2.5,0.2-5.1,0.8-7.5
		c-2.5,2.2-4.4,5-5.5,8C38.1,38.4,39.7,38.3,41.2,38 M44.3,49.9c-1.5-2.9-2.5-6-2.9-9.2c-1.9,0.3-3.8,0.5-5.7,0.4
		c-0.9,4.2-0.4,8.7,1.6,12.8L44.3,49.9z M52.1,59.2c-2.5-1.9-4.8-4.3-6.5-7.1l-7,4c2.5,3.8,6.2,6.4,10.3,7.7
		C49.8,62.3,50.9,60.7,52.1,59.2 M61.3,63.8c-2.5-0.7-4.8-1.7-6.9-3.1c-1,1.2-2,2.5-2.7,3.8C54.8,65.1,58.1,64.9,61.3,63.8
		 M68.6,52.5c0.1,2.5-0.2,5-0.8,7.5c2.5-2.2,4.4-4.9,5.5-8C71.7,52.1,70.2,52.2,68.6,52.5 M65.6,40.7c1.5,2.9,2.5,6,2.9,9.2
		c1.9-0.3,3.8-0.5,5.7-0.4c0.9-4.2,0.5-8.7-1.6-12.8L65.6,40.7z M57.7,31.3c2.5,1.9,4.8,4.3,6.5,7.1l7-4c-2.5-3.8-6.2-6.4-10.3-7.8
		C60,28.2,58.9,29.8,57.7,31.3 M48.6,26.7c2.4,0.7,4.8,1.7,6.9,3.1c1-1.2,1.9-2.5,2.7-3.8C55,25.4,51.7,25.6,48.6,26.7 M47.9,35.7
		l-3.1-5.3c-0.6,2.3-0.9,4.6-0.9,6.9C45.2,36.9,46.6,36.4,47.9,35.7 M53.1,44.8L49.2,38c-1.6,0.9-3.4,1.5-5.2,2
		c0.3,2.9,1.2,5.8,2.6,8.4L53.1,44.8z M58.3,53.8l-3.9-6.7l-6.5,3.8c1.6,2.5,3.7,4.7,6,6.4C55.3,56,56.8,54.8,58.3,53.8 M62.7,61.5
		l-3.1-5.3c-1.2,0.8-2.3,1.7-3.4,2.6C58.3,60,60.4,60.9,62.7,61.5 M62,54.8l3.1,5.3c0.6-2.3,0.9-4.6,0.9-6.9
		C64.6,53.6,63.3,54.2,62,54.8 M56.7,45.7l3.9,6.7c1.7-0.9,3.4-1.5,5.2-2c-0.3-2.9-1.2-5.8-2.6-8.5L56.7,45.7z M51.5,36.7l3.9,6.7
		l6.5-3.8c-1.6-2.5-3.7-4.7-6.1-6.4C54.5,34.5,53.1,35.7,51.5,36.7 M47.1,29l3.1,5.3c1.2-0.8,2.3-1.7,3.4-2.6
		C51.6,30.5,49.4,29.6,47.1,29 M69.2,84.8l-28.6,0c-2.3,0-2.7-3.4-0.4-3.9l12.7-2.8v-3.8c-9.5-0.6-18.3-5.9-23.2-14.5l0,0
		c-4-6.6-4.8-15.1-2.9-22.1c1.8-6.8,6.1-12.9,12.4-17c-0.6-1-1.7-2.4-0.3-3.3c1.4-0.8,2.1,1,2.7,1.9l5.9-2.3c2.5-0.7,3.5,3.1,1,3.8
		l-6.1,2.5l0,0c-12,7-16.2,22.4-9.2,34.4l0,0c7,12,22.4,16.2,34.4,9.2l0,0l5.2-4c1.8-1.8,4.6,1,2.8,2.8l-4.9,3.9
		c0.6,1,1.8,2.5,0.4,3.3c-1.4,0.8-2.1-1-2.7-2c-3.6,1.9-7.5,2.9-11.4,3.2v3.8l12.6,2.8C72,81.3,71.6,84.8,69.2,84.8"/>
	<line clip-path="url(#SVGID_2_)" fill="none" stroke="#FFBA05" x1="53.7" y1="96.1" x2="53.7" y2="153.3"/>
</g>
</svg>
