<?xml version="1.0" encoding="utf-8"?>
<!-- Generator: Adobe Illustrator 18.1.1, SVG Export Plug-In . SVG Version: 6.00 Build 0)  -->
<svg version="1.1" id="Layer_1" xmlns="http://www.w3.org/2000/svg" xmlns:xlink="http://www.w3.org/1999/xlink" x="0px" y="0px"
	 viewBox="0 0 103.7 153.6" enable-background="new 0 0 103.7 153.6" xml:space="preserve">
<g>
	<defs>
		<rect id="SVGID_1_" width="103.7" height="153.6"/>
	</defs>
	<clipPath id="SVGID_2_">
		<use xlink:href="#SVGID_1_"  overflow="visible"/>
	</clipPath>
	<path clip-path="url(#SVGID_2_)" fill="#89C543" d="M51.9,102.6c28,0,50.8-22.7,50.8-50.8c0-28-22.7-50.8-50.8-50.8
		S1.1,23.8,1.1,51.9C1.1,79.9,23.8,102.6,51.9,102.6"/>
	<circle clip-path="url(#SVGID_2_)" fill="none" stroke="#FFFFFF" stroke-width="2.209" cx="51.9" cy="51.9" r="50.8"/>
	<path clip-path="url(#SVGID_2_)" fill="#FFFFFF" d="M51.9,92.3c-22.4,0-40.5-18.1-40.5-40.5c0-22.4,18.1-40.5,40.5-40.5
		s40.5,18.1,40.5,40.5C92.3,74.2,74.2,92.3,51.9,92.3"/>
	<path clip-path="url(#SVGID_2_)" fill="#A6A8AB" d="M65.5,51.8H38.2c-0.7,0-1.3-0.6-1.3-1.3s0.6-1.3,1.3-1.3h27.3
		c0.7,0,1.3,0.6,1.3,1.3S66.2,51.8,65.5,51.8"/>
	<path clip-path="url(#SVGID_2_)" fill="#A6A8AB" d="M65.5,59H38.2c-0.7,0-1.3-0.6-1.3-1.3s0.6-1.3,1.3-1.3h27.3
		c0.7,0,1.3,0.6,1.3,1.3S66.2,59,65.5,59"/>
	<path clip-path="url(#SVGID_2_)" fill="#A6A8AB" d="M65.5,66.3H38.2c-0.7,0-1.3-0.6-1.3-1.3s0.6-1.3,1.3-1.3h27.3
		c0.7,0,1.3,0.6,1.3,1.3S66.2,66.3,65.5,66.3"/>
	<path clip-path="url(#SVGID_2_)" fill="#A6A8AB" d="M65.5,73.5H38.2c-0.7,0-1.3-0.6-1.3-1.3s0.6-1.3,1.3-1.3h27.3
		c0.7,0,1.3,0.6,1.3,1.3S66.2,73.5,65.5,73.5"/>
	<path clip-path="url(#SVGID_2_)" fill="#A6A8AB" d="M77,28.8c0.1-0.2,0.1-0.4,0-0.6c-0.1-0.2-0.2-0.3-0.4-0.4
		c-0.1-0.1-0.3-0.1-0.5-0.1c-0.2,0-0.4,0.1-0.5,0.4l-4.9,9.8c-0.2,0.4-0.1,0.6,0,0.8c0.1,0.1,0.2,0.2,0.3,0.3l0.2,0.1
		c0.2,0,0.3,0.1,0.5,0c0.3-0.1,0.4-0.2,0.5-0.3L77,28.8z"/>
	<path clip-path="url(#SVGID_2_)" fill="#A6A8AB" d="M50.3,29.6c0-0.3-0.1-0.5-0.3-0.6c-0.2-0.1-0.4-0.2-0.6-0.2
		c-0.2,0-0.4,0.1-0.5,0.2c-0.1,0.1-0.3,0.3-0.3,0.7l0.8,10.6c0,0.5,0.2,0.7,0.4,0.8c0.2,0.1,0.3,0.1,0.5,0.1l0.2,0
		c0.2-0.1,0.4-0.2,0.5-0.3c0.3-0.2,0.3-0.5,0.3-0.7L50.3,29.6z"/>
	<path clip-path="url(#SVGID_2_)" fill="#A6A8AB" d="M55.6,30.2c0.2-0.1,0.4,0.1,0.5,0.3c0.2,0.3,0.5,0.7,0.6,1.2
		c0.2,0.5,0.3,1.1,0.4,1.7c0.1,0.6,0.1,1.3,0.1,1.9c0,0.6-0.1,1.1-0.2,1.6c-0.1,0.4-0.3,0.8-0.5,1.1c-0.2,0.3-0.3,0.5-0.5,0.6
		c-0.1,0.1-0.2,0.1-0.3,0.1c0,0,0,0,0,0c-0.1,0-0.2-0.1-0.3-0.3c-0.2-0.2-0.4-0.5-0.5-0.9c-0.2-0.4-0.3-0.9-0.4-1.4
		c-0.1-0.5-0.2-1.1-0.2-1.6c0-0.6,0-1.2,0.1-1.7c0.1-0.5,0.2-1,0.3-1.5c0.1-0.4,0.3-0.7,0.5-1C55.3,30.3,55.4,30.2,55.6,30.2
		L55.6,30.2z M58.8,32.1c-0.1-0.5-0.3-1-0.5-1.5c-0.2-0.5-0.4-0.9-0.7-1.2c-0.3-0.4-0.6-0.7-0.9-0.9c-0.3-0.2-0.7-0.3-1.2-0.3
		c-0.3,0-0.7,0.1-1,0.3c-0.3,0.2-0.6,0.4-0.8,0.8c-0.2,0.3-0.4,0.7-0.6,1.1c-0.2,0.4-0.3,0.8-0.4,1.3c-0.1,0.5-0.2,0.9-0.2,1.4
		c0,0.5-0.1,1,0,1.5c0,0.8,0.1,1.5,0.3,2.2c0.2,0.7,0.4,1.3,0.7,1.9c0.3,0.6,0.6,1,1,1.3c0.4,0.4,0.9,0.5,1.3,0.5c0.1,0,0.1,0,0.2,0
		c0.4,0,0.8-0.2,1.1-0.4c0.4-0.3,0.8-0.6,1.1-1.1c0.3-0.5,0.6-1,0.8-1.6c0.2-0.6,0.3-1.3,0.3-2.1c0-0.6,0-1.1-0.1-1.7
		C59,33.2,58.9,32.6,58.8,32.1"/>
	<path clip-path="url(#SVGID_2_)" fill="#A6A8AB" d="M63.7,29.5c0.2-0.1,0.4,0.1,0.5,0.3c0.2,0.3,0.5,0.7,0.6,1.2
		c0.2,0.5,0.3,1.1,0.4,1.7c0.1,0.6,0.1,1.3,0.1,1.9c0,0.6-0.1,1.1-0.2,1.6c-0.1,0.4-0.3,0.8-0.5,1.1c-0.2,0.3-0.3,0.5-0.5,0.6
		c-0.1,0.1-0.2,0.1-0.3,0.1c0,0,0,0,0,0c-0.1,0-0.2-0.1-0.3-0.3c-0.2-0.2-0.4-0.5-0.5-0.9c-0.2-0.4-0.3-0.9-0.4-1.4
		c-0.1-0.5-0.2-1.1-0.2-1.6c0-0.6,0-1.2,0.1-1.7c0.1-0.5,0.2-1,0.3-1.5c0.1-0.4,0.3-0.7,0.5-1C63.4,29.6,63.5,29.5,63.7,29.5
		L63.7,29.5z M66.9,31.4c-0.1-0.5-0.3-1-0.5-1.5c-0.2-0.5-0.4-0.9-0.7-1.2c-0.3-0.4-0.6-0.7-0.9-0.9c-0.3-0.2-0.7-0.3-1.2-0.3
		c-0.3,0-0.7,0.1-1,0.3c-0.3,0.2-0.6,0.4-0.8,0.8c-0.2,0.3-0.4,0.7-0.6,1.1c-0.2,0.4-0.3,0.8-0.4,1.3c-0.1,0.5-0.2,0.9-0.2,1.4
		c0,0.5-0.1,1,0,1.5c0,0.8,0.1,1.5,0.3,2.2c0.2,0.7,0.4,1.3,0.7,1.9c0.3,0.6,0.6,1,1,1.3c0.4,0.4,0.9,0.5,1.3,0.5c0.1,0,0.1,0,0.2,0
		c0.4,0,0.8-0.2,1.1-0.4c0.4-0.3,0.8-0.6,1.1-1.1c0.3-0.5,0.6-1,0.8-1.6c0.2-0.6,0.3-1.3,0.3-2.1c0-0.6,0-1.1-0.1-1.7
		C67.1,32.5,67,32,66.9,31.4"/>
	<path clip-path="url(#SVGID_2_)" fill="#A6A8AB" d="M71,30.3c0.1,0.2,0.3,0.3,0.4,0.5c0.1,0.2,0.2,0.4,0.2,0.7c0,0.2,0,0.4,0,0.6
		c0,0.2-0.1,0.4-0.2,0.5c-0.3,0.4-0.9,0.2-1.1,0.1c-0.1-0.1-0.2-0.3-0.3-0.4c-0.1-0.2-0.2-0.3-0.2-0.5c-0.1-0.2-0.1-0.4-0.1-0.6
		c0-0.2,0-0.4,0.1-0.6C69.8,30.3,70.5,29.7,71,30.3 M72.2,30.1c-0.1-0.2-0.3-0.3-0.4-0.4c-0.2-0.1-0.3-0.2-0.5-0.3
		c-0.2-0.1-0.4-0.1-0.6-0.2c-0.2,0-0.5,0-0.8,0.1c-0.2,0.1-0.4,0.2-0.6,0.3c-0.2,0.1-0.3,0.3-0.4,0.4c-0.1,0.2-0.2,0.3-0.3,0.5
		c-0.1,0.2-0.1,0.4-0.1,0.5c0,0.2,0,0.4,0,0.6c0,0.2,0,0.4,0.1,0.6c0.1,0.3,0.2,0.5,0.3,0.8c0.2,0.2,0.3,0.4,0.5,0.6
		c0.2,0.2,0.4,0.3,0.7,0.3c0.3,0.1,0.6,0,0.8,0c0,0,0.1,0,0.1,0c0.2-0.1,0.5-0.2,0.7-0.3c0.2-0.2,0.4-0.4,0.6-0.6
		c0.1-0.2,0.3-0.5,0.3-0.7c0.1-0.3,0.1-0.5,0-0.8c0-0.2-0.1-0.4-0.2-0.6C72.4,30.4,72.3,30.2,72.2,30.1"/>
	<path clip-path="url(#SVGID_2_)" fill="#A6A8AB" d="M77.8,33.3c0.2,0.1,0.3,0.3,0.4,0.5c0.1,0.2,0.2,0.4,0.2,0.7c0,0.2,0,0.4,0,0.6
		c0,0.2-0.7,1-1.2,0.6c-0.1-0.1-0.2-0.3-0.3-0.4c-0.1-0.2-0.2-0.3-0.2-0.5c-0.1-0.2-0.1-0.4-0.1-0.6c0-0.2,0-0.4,0.1-0.6
		C76.6,33.4,77.3,32.8,77.8,33.3 M79.1,33.1c-0.1-0.2-0.3-0.3-0.4-0.4c-0.2-0.1-0.3-0.2-0.5-0.3c-0.2-0.1-0.4-0.1-0.6-0.2
		c-0.2,0-0.5,0-0.8,0.1c-0.2,0.1-0.4,0.2-0.6,0.3c-0.2,0.1-0.3,0.3-0.4,0.4c-0.1,0.2-0.2,0.3-0.3,0.5c-0.1,0.2-0.1,0.4-0.1,0.5
		c0,0.2,0,0.4,0,0.6c0,0.2,0,0.4,0.1,0.6c0.1,0.3,0.2,0.5,0.3,0.8c0.2,0.2,0.3,0.4,0.5,0.6c0.2,0.2,0.4,0.3,0.7,0.3
		c0.3,0.1,0.6,0,0.8,0c0,0,0.1,0,0.1,0c0.2-0.1,0.5-0.2,0.7-0.3c0.2-0.2,0.4-0.4,0.6-0.6c0.1-0.2,0.3-0.5,0.3-0.7
		c0.1-0.3,0.1-0.5,0-0.8c0-0.2-0.1-0.4-0.2-0.6C79.3,33.4,79.2,33.2,79.1,33.1"/>
	<path clip-path="url(#SVGID_2_)" fill="#A6A8AB" d="M48.3,45.9c-0.3,0-0.6-0.2-0.6-0.5c-0.1-0.3,0.2-0.6,0.5-0.7
		c2.5-0.4,5-0.9,7.5-1.3c8.4-1.5,17.1-3,25.7-4.3c0.3-0.1,0.6,0.2,0.7,0.5c0,0.3-0.2,0.6-0.5,0.7c-8.6,1.3-17.3,2.8-25.7,4.3
		C53.4,45.1,50.9,45.5,48.3,45.9C48.4,45.9,48.3,45.9,48.3,45.9"/>
	<path clip-path="url(#SVGID_2_)" fill="#A6A8AB" d="M54.3,46.6c-0.3,0-0.6-0.2-0.6-0.5c0-0.3,0.2-0.6,0.5-0.7
		c6.9-1,11.2-1.5,16.1-2.1c3-0.4,6.2-0.7,10.4-1.3c0.3,0,0.6,0.2,0.7,0.5c0,0.3-0.2,0.6-0.5,0.7c-4.2,0.5-7.4,0.9-10.4,1.3
		C65.5,45.2,61.2,45.7,54.3,46.6C54.3,46.6,54.3,46.6,54.3,46.6"/>
	<path clip-path="url(#SVGID_2_)" fill="#A6A8AB" d="M72.2,47.2v30.1c0,1-0.8,1.8-1.8,1.8H33.2c-1,0-1.8-0.8-1.8-1.8V26.7
		c0-1,0.8-1.8,1.8-1.8h37.2c0.9,0,1.6,0.7,1.8,1.6h2.5c-0.1-2.3-2-4.1-4.3-4.1H33.2c-2.4,0-4.3,1.9-4.3,4.3v50.6
		c0,2.4,1.9,4.3,4.3,4.3h37.2c2.4,0,4.3-1.9,4.3-4.3V47.2H72.2z"/>
	<line clip-path="url(#SVGID_2_)" fill="none" stroke="#89C543" x1="51.4" y1="94.9" x2="51.4" y2="153.6"/>
</g>
</svg>
